<svg xmlns="http://www.w3.org/2000/svg" viewBox="0 0 512 512"><title>logo</title><g id="logo"><polygon points="182.39 213.5 182.39 298.5 256 341 329.61 298.5 329.61 213.5 256 171 182.39 213.5" fill="#212121"/><polygon points="403.22 86 403.22 171 476.84 213.5 476.84 128.5 403.22 86" fill="#fff"/><polygon points="403.22 256 403.22 341 329.61 383.5 256 426 182.39 383.5 108.78 341 108.78 426 182.39 468.5 256 511 329.61 468.5 403.22 426 476.84 383.5 476.84 298.5 476.84 213.5 403.22 171 403.22 256" fill="#212121"/><path d="M256,86l-73.61,42.5L108.78,171V341l73.61,42.5L256,426l73.61-42.5L403.22,341V171l-73.61-42.5Zm73.61,212.5L256,341l-73.61-42.5v-85L256,171l73.61,42.5Z" fill="#fff"/><polygon points="35.16 298.5 35.16 383.5 108.78 426 108.78 341 35.16 298.5" fill="#fff"/><polygon points="108.78 256 108.78 171 182.39 128.5 256 86 329.61 128.5 403.22 171 403.22 86 329.61 43.5 256 1 182.39 43.5 108.78 86 35.16 128.5 35.16 213.5 35.16 298.5 108.78 341 108.78 256" fill="#212121"/></g></svg>